<svg width="19" height="19" viewBox="0 0 19 19" fill="none" xmlns="http://www.w3.org/2000/svg">
<g clip-path="url(#clip0_62_222)">
<path d="M5.53402 5.89695L5.64606 6.63854L5.64606 6.63854L5.53402 5.89695ZM6.84165 4.90918L6.16411 4.58757L6.84165 4.90918ZM2.10967 9.34878L2.64354 8.82201L2.64354 8.82201L2.10967 9.34878ZM3.07217 6.26888L2.96013 5.5273L2.96013 5.5273L3.07217 6.26888ZM4.39055 12.7524L5.13055 12.8745L4.39055 12.7524ZM3.89109 11.1542L3.35722 11.6809L3.35722 11.6809L3.89109 11.1542ZM6.48988 17.2052L6.13015 16.5471L6.13015 16.5471L6.48988 17.2052ZM3.97002 15.3017L3.23002 15.1796L3.23002 15.1796L3.97002 15.3017ZM10.3081 16.0016L9.94841 16.6597L9.94841 16.6597L10.3081 16.0016ZM8.69182 16.0016L9.05155 16.6597L9.05155 16.6597L8.69182 16.0016ZM15.0299 15.3017L15.7699 15.1796L15.7699 15.1796L15.0299 15.3017ZM12.5101 17.2052L12.8698 16.5471L12.8698 16.5471L12.5101 17.2052ZM15.1089 11.1542L14.575 10.6274L14.575 10.6274L15.1089 11.1542ZM14.6094 12.7524L13.8694 12.8745L13.8694 12.8745L14.6094 12.7524ZM15.9278 6.26888L16.0398 5.5273L16.0398 5.5273L15.9278 6.26888ZM16.8903 9.34878L17.4242 9.87555L17.4242 9.87555L16.8903 9.34878ZM12.1583 4.90918L12.8359 4.58757L12.8359 4.58757L12.1583 4.90918ZM13.4659 5.89695L13.3539 6.63854L13.3539 6.63854L13.4659 5.89695ZM11.0573 2.58978L10.3798 2.9114L10.3798 2.9114L11.0573 2.58978ZM7.94262 2.58979L8.62016 2.9114L8.62016 2.9114L7.94262 2.58979ZM10.3798 2.9114L11.4808 5.2308L12.8359 4.58757L11.7349 2.26817L10.3798 2.9114ZM13.3539 6.63854L15.8157 7.01047L16.0398 5.5273L13.578 5.15537L13.3539 6.63854ZM16.3564 8.822L14.575 10.6274L15.6427 11.6809L17.4242 9.87555L16.3564 8.822ZM13.8694 12.8745L14.2899 15.4238L15.7699 15.1796L15.3494 12.6303L13.8694 12.8745ZM12.8698 16.5471L10.6679 15.3435L9.94841 16.6597L12.1504 17.8633L12.8698 16.5471ZM8.3321 15.3435L6.13015 16.5471L6.8496 17.8633L9.05155 16.6597L8.3321 15.3435ZM4.71002 15.4238L5.13055 12.8745L3.65055 12.6303L3.23002 15.1796L4.71002 15.4238ZM4.42495 10.6274L2.64354 8.82201L1.57581 9.87555L3.35722 11.6809L4.42495 10.6274ZM3.18421 7.01047L5.64606 6.63854L5.42199 5.15537L2.96013 5.5273L3.18421 7.01047ZM7.51919 5.2308L8.62016 2.9114L7.26508 2.26817L6.16411 4.58757L7.51919 5.2308ZM5.64606 6.63854C6.4674 6.51445 7.16327 5.98061 7.51919 5.2308L6.16411 4.58757C6.01409 4.90361 5.73197 5.10854 5.42199 5.15537L5.64606 6.63854ZM2.64354 8.82201C2.01503 8.18504 2.40523 7.12816 3.18421 7.01047L2.96013 5.5273C0.890163 5.84003 0.142796 8.42324 1.57581 9.87555L2.64354 8.82201ZM5.13055 12.8745C5.26538 12.0572 5.00654 11.2168 4.42495 10.6274L3.35722 11.6809C3.59427 11.9212 3.70898 12.2762 3.65055 12.6303L5.13055 12.8745ZM6.13015 16.5471C5.46399 16.9112 4.55723 16.3499 4.71002 15.4238L3.23002 15.1796C2.89615 17.2035 4.96759 18.892 6.8496 17.8633L6.13015 16.5471ZM10.6679 15.3435C9.93775 14.9444 9.06221 14.9444 8.3321 15.3435L9.05155 16.6597C9.33332 16.5056 9.66663 16.5056 9.94841 16.6597L10.6679 15.3435ZM14.2899 15.4238C14.4427 16.3499 13.536 16.9112 12.8698 16.5471L12.1504 17.8633C14.0324 18.892 16.1038 17.2035 15.7699 15.1796L14.2899 15.4238ZM14.575 10.6274C13.9934 11.2168 13.7346 12.0572 13.8694 12.8745L15.3494 12.6303C15.291 12.2762 15.4057 11.9212 15.6427 11.6809L14.575 10.6274ZM15.8157 7.01047C16.5947 7.12816 16.9849 8.18504 16.3564 8.822L17.4242 9.87555C18.8572 8.42324 18.1098 5.84003 16.0398 5.5273L15.8157 7.01047ZM11.4808 5.2308C11.8367 5.98061 12.5326 6.51445 13.3539 6.63854L13.578 5.15537C13.268 5.10854 12.9859 4.90361 12.8359 4.58757L11.4808 5.2308ZM11.7349 2.26817C10.8267 0.354943 8.17325 0.35495 7.26508 2.26817L8.62016 2.9114C8.98608 2.14053 10.0139 2.14054 10.3798 2.9114L11.7349 2.26817Z" fill="#1E2124"/>
</g>
<defs>
<clipPath id="clip0_62_222">
<rect width="19" height="19" fill="white"/>
</clipPath>
</defs>
</svg>
