<svg width="19" height="19" viewBox="0 0 19 19" fill="none" xmlns="http://www.w3.org/2000/svg">
<g clip-path="url(#clip0_69_235)">
<path d="M16.6666 9.50016C16.6666 13.4582 13.458 16.6668 9.49998 16.6668V18.1668C14.2864 18.1668 18.1666 14.2866 18.1666 9.50016H16.6666ZM9.49998 16.6668C5.54194 16.6668 2.33331 13.4582 2.33331 9.50016H0.833313C0.833313 14.2866 4.71351 18.1668 9.49998 18.1668V16.6668ZM2.33331 9.50016C2.33331 5.54212 5.54194 2.3335 9.49998 2.3335V0.833496C4.71351 0.833496 0.833313 4.71369 0.833313 9.50016H2.33331ZM9.49998 2.3335C13.458 2.3335 16.6666 5.54212 16.6666 9.50016H18.1666C18.1666 4.71369 14.2864 0.833496 9.49998 0.833496V2.3335ZM11.9166 9.50016C11.9166 11.6153 11.5723 13.4957 11.0428 14.8195C10.7772 15.4836 10.4797 15.9706 10.1877 16.2794C9.89717 16.5865 9.66453 16.6668 9.49998 16.6668V18.1668C10.2099 18.1668 10.8103 17.8041 11.2775 17.31C11.7432 16.8176 12.1281 16.1452 12.4355 15.3766C13.0521 13.8352 13.4166 11.7573 13.4166 9.50016H11.9166ZM9.49998 16.6668C9.33543 16.6668 9.10279 16.5865 8.81229 16.2794C8.52029 15.9706 8.22277 15.4836 7.95717 14.8195C7.42761 13.4957 7.08331 11.6153 7.08331 9.50016H5.58331C5.58331 11.7573 5.9479 13.8352 6.56445 15.3766C6.87189 16.1452 7.25674 16.8176 7.72245 17.31C8.18966 17.8041 8.79008 18.1668 9.49998 18.1668V16.6668ZM7.08331 9.50016C7.08331 7.38502 7.42761 5.50466 7.95717 4.18078C8.22277 3.51675 8.52029 3.02972 8.81229 2.72096C9.10279 2.41378 9.33543 2.3335 9.49998 2.3335V0.833496C8.79008 0.833496 8.18966 1.19626 7.72245 1.6903C7.25674 2.18274 6.87189 2.85508 6.56445 3.62369C5.9479 5.16507 5.58331 7.24305 5.58331 9.50016H7.08331ZM9.49998 2.3335C9.66453 2.3335 9.89717 2.41378 10.1877 2.72096C10.4797 3.02972 10.7772 3.51675 11.0428 4.18078C11.5723 5.50466 11.9166 7.38502 11.9166 9.50016H13.4166C13.4166 7.24305 13.0521 5.16507 12.4355 3.62369C12.1281 2.85508 11.7432 2.18274 11.2775 1.6903C10.8103 1.19626 10.2099 0.833496 9.49998 0.833496V2.3335ZM9.49998 11.1252C7.36581 11.1252 5.46265 10.8647 4.11756 10.4612C3.44024 10.258 2.94676 10.0309 2.63934 9.81287C2.31244 9.58101 2.33331 9.46447 2.33331 9.50016L0.833313 9.50016C0.833313 10.1917 1.29723 10.6999 1.77155 11.0364C2.26534 11.3866 2.93122 11.6713 3.68654 11.8979C5.20672 12.354 7.26189 12.6252 9.49998 12.6252L9.49998 11.1252ZM2.33331 9.50016C2.33331 9.53585 2.31244 9.41931 2.63934 9.18745C2.94676 8.96941 3.44024 8.74235 4.11756 8.53915C5.46265 8.13563 7.36581 7.87516 9.49998 7.87516L9.49998 6.37516C7.26189 6.37516 5.20672 6.64636 3.68654 7.10241C2.93122 7.32901 2.26534 7.61372 1.77155 7.96396C1.29723 8.30038 0.833313 8.80863 0.833313 9.50016L2.33331 9.50016ZM9.49998 7.87516C11.6341 7.87516 13.5373 8.13563 14.8824 8.53915C15.5597 8.74235 16.0532 8.96941 16.3606 9.18745C16.6875 9.41931 16.6666 9.53585 16.6666 9.50016L18.1666 9.50016C18.1666 8.80863 17.7027 8.30038 17.2284 7.96396C16.7346 7.61372 16.0687 7.32901 15.3134 7.10241C13.7932 6.64636 11.7381 6.37516 9.49998 6.37516L9.49998 7.87516ZM16.6666 9.50016C16.6666 9.46447 16.6875 9.58101 16.3606 9.81287C16.0532 10.0309 15.5597 10.258 14.8824 10.4612C13.5373 10.8647 11.6341 11.1252 9.49998 11.1252L9.49998 12.6252C11.7381 12.6252 13.7932 12.354 15.3134 11.8979C16.0687 11.6713 16.7346 11.3866 17.2284 11.0364C17.7027 10.6999 18.1666 10.1917 18.1666 9.50016L16.6666 9.50016Z" fill="#28303F"/>
</g>
<defs>
<clipPath id="clip0_69_235">
<rect width="19" height="19" fill="white"/>
</clipPath>
</defs>
</svg>
