<svg width="19" height="19" viewBox="0 0 19 19" fill="none" xmlns="http://www.w3.org/2000/svg">
<path d="M10.25 4.79225C10.25 4.37804 9.91419 4.04225 9.49998 4.04225C9.08577 4.04225 8.74998 4.37804 8.74998 4.79225H10.25ZM8.74998 16.0728C8.74998 16.487 9.08577 16.8228 9.49998 16.8228C9.91419 16.8228 10.25 16.487 10.25 16.0728H8.74998ZM3.16216 2.38392L3.24637 1.63867L3.16216 2.38392ZM8.95913 4.29435L9.38953 3.68014L9.38953 3.68014L8.95913 4.29435ZM3.16216 14.5448L3.24637 13.7995L3.24637 13.7995L3.16216 14.5448ZM8.95913 16.4552L9.38953 15.841L9.38953 15.841L8.95913 16.4552ZM15.8378 2.38392L15.7536 1.63867L15.7536 1.63867L15.8378 2.38392ZM10.0408 4.29435L9.61043 3.68014L9.61043 3.68014L10.0408 4.29435ZM15.8378 14.5448L15.7536 13.7995L15.7536 13.7995L15.8378 14.5448ZM10.0408 16.4552L9.61043 15.841L9.61043 15.841L10.0408 16.4552ZM4.0731 5.79376C3.66376 5.73037 3.28054 6.01081 3.21715 6.42014C3.15376 6.82947 3.4342 7.21269 3.84353 7.27609L4.0731 5.79376ZM6.85447 8.05242C7.24081 8.20182 7.6751 8.00974 7.8245 7.62341C7.97389 7.23707 7.78182 6.80278 7.39548 6.65338L6.85447 8.05242ZM4.0731 8.96043C3.66376 8.89703 3.28054 9.17747 3.21715 9.58681C3.15376 9.99614 3.4342 10.3794 3.84353 10.4428L4.0731 8.96043ZM5.35817 10.7484C5.7598 10.8497 6.16753 10.6063 6.26886 10.2047C6.37019 9.80304 6.12675 9.39532 5.72512 9.29399L5.35817 10.7484ZM8.74998 4.79225V16.0728H10.25V4.79225H8.74998ZM3.07794 3.12918C4.79213 3.32288 7.00152 3.83841 8.52874 4.90857L9.38953 3.68014C7.55422 2.3941 5.04461 1.84187 3.24637 1.63867L3.07794 3.12918ZM3.07794 15.29C4.79213 15.4837 7.00152 15.9992 8.52874 17.0694L9.38953 15.841C7.55422 14.5549 5.04461 14.0027 3.24637 13.7995L3.07794 15.29ZM0.833313 3.90702V12.825H2.33331V3.90702H0.833313ZM3.24637 13.7995C2.72532 13.7406 2.33331 13.3083 2.33331 12.825H0.833313C0.833313 14.1326 1.86064 15.1525 3.07794 15.29L3.24637 13.7995ZM3.24637 1.63867C1.86309 1.48236 0.833313 2.63678 0.833313 3.90702H2.33331C2.33331 3.38625 2.72287 3.08906 3.07794 3.12918L3.24637 1.63867ZM15.7536 1.63867C13.9553 1.84187 11.4457 2.3941 9.61043 3.68014L10.4712 4.90857C11.9984 3.83841 14.2078 3.32288 15.922 3.12918L15.7536 1.63867ZM15.7536 13.7995C13.9553 14.0027 11.4457 14.5549 9.61043 15.841L10.4712 17.0694C11.9984 15.9992 14.2078 15.4837 15.922 15.29L15.7536 13.7995ZM16.6666 3.90702V12.825H18.1666V3.90702H16.6666ZM15.922 15.29C17.1393 15.1525 18.1666 14.1326 18.1666 12.825H16.6666C16.6666 13.3083 16.2746 13.7406 15.7536 13.7995L15.922 15.29ZM15.922 3.12918C16.2771 3.08906 16.6666 3.38625 16.6666 3.90702H18.1666C18.1666 2.63678 17.1369 1.48236 15.7536 1.63867L15.922 3.12918ZM8.52874 17.0694C9.11023 17.4769 9.88973 17.4769 10.4712 17.0694L9.61043 15.841C9.54568 15.8863 9.45428 15.8863 9.38953 15.841L8.52874 17.0694ZM8.52874 4.90857C9.11023 5.31604 9.88973 5.31604 10.4712 4.90857L9.61043 3.68014C9.54568 3.72551 9.45428 3.72551 9.38953 3.68014L8.52874 4.90857ZM3.84353 7.27609C4.8086 7.42555 5.87129 7.67222 6.85447 8.05242L7.39548 6.65338C6.28515 6.22401 5.11217 5.95468 4.0731 5.79376L3.84353 7.27609ZM3.84353 10.4428C4.32955 10.518 4.84222 10.6182 5.35817 10.7484L5.72512 9.29399C5.15855 9.15104 4.5996 9.04196 4.0731 8.96043L3.84353 10.4428Z" fill="#28303F"/>
</svg>
