<svg width="19" height="19" viewBox="0 0 19 19" fill="none" xmlns="http://www.w3.org/2000/svg">
<path d="M4.74998 3.125H14.25V1.625H4.74998V3.125ZM16.6666 5.54167V13.4583H18.1666V5.54167H16.6666ZM14.25 15.875H4.74998V17.375H14.25V15.875ZM2.33331 13.4583V5.54167H0.833313V13.4583H2.33331ZM4.74998 15.875C3.41529 15.875 2.33331 14.793 2.33331 13.4583H0.833313C0.833313 15.6214 2.58686 17.375 4.74998 17.375V15.875ZM16.6666 13.4583C16.6666 14.793 15.5847 15.875 14.25 15.875V17.375C16.4131 17.375 18.1666 15.6214 18.1666 13.4583H16.6666ZM14.25 3.125C15.5847 3.125 16.6666 4.20698 16.6666 5.54167H18.1666C18.1666 3.37855 16.4131 1.625 14.25 1.625V3.125ZM4.74998 1.625C2.58686 1.625 0.833313 3.37855 0.833313 5.54167H2.33331C2.33331 4.20698 3.41529 3.125 4.74998 3.125V1.625Z" fill="#1E2124"/>
<path d="M1.58331 5.54175V4.79175C1.1691 4.79175 0.833313 5.12753 0.833313 5.54175H1.58331ZM17.4166 5.54175H18.1666C18.1666 5.12753 17.8309 4.79175 17.4166 4.79175V5.54175ZM17.4166 8.70841V9.45841C17.8309 9.45841 18.1666 9.12263 18.1666 8.70841H17.4166ZM1.58331 8.70841H0.833313C0.833313 9.12263 1.1691 9.45841 1.58331 9.45841L1.58331 8.70841ZM1.58331 6.29175H17.4166V4.79175H1.58331V6.29175ZM16.6666 5.54175V8.70841H18.1666V5.54175H16.6666ZM17.4166 7.95841H1.58331V9.45841H17.4166V7.95841ZM2.33331 8.70841V5.54175H0.833313V8.70841H2.33331Z" fill="#1E2124"/>
<path d="M6.33333 14.2083C6.74755 14.2083 7.08333 13.8725 7.08333 13.4583C7.08333 13.044 6.74755 12.7083 6.33333 12.7083V14.2083ZM4.75 12.7083C4.33579 12.7083 4 13.044 4 13.4583C4 13.8725 4.33579 14.2083 4.75 14.2083V12.7083ZM6.33333 12.7083H4.75V14.2083H6.33333V12.7083Z" fill="#1E2124"/>
</svg>
