<svg width="21" height="21" viewBox="0 0 21 21" fill="none" xmlns="http://www.w3.org/2000/svg">
<path d="M19.25 5.25V4.5C19.6642 4.5 20 4.83579 20 5.25H19.25ZM19.25 6H5.75V4.5H19.25V6ZM2.5 9.25V15.25H1V9.25H2.5ZM5.75 18.5H15.25V20H5.75V18.5ZM18.5 15.25V5.25H20V15.25H18.5ZM15.25 18.5C17.0449 18.5 18.5 17.0449 18.5 15.25H20C20 17.8734 17.8734 20 15.25 20V18.5ZM2.5 15.25C2.5 17.0449 3.95507 18.5 5.75 18.5V20C3.12665 20 1 17.8734 1 15.25H2.5ZM5.75 6C3.95507 6 2.5 7.45507 2.5 9.25H1C1 6.62665 3.12665 4.5 5.75 4.5V6Z" fill="#1E2124"/>
<path d="M19.25 4.5C19.6642 4.5 20 4.83579 20 5.25C20 5.66421 19.6642 6 19.25 6V4.5ZM15.75 2.5H10.5V1H15.75V2.5ZM7 4.5H19.25V6H7V4.5ZM10.5 2.5C8.98122 2.5 7.75 3.73122 7.75 5.25H6.25C6.25 2.90279 8.15279 1 10.5 1V2.5ZM15.75 1C18.0972 1 20 2.90279 20 5.25H18.5C18.5 3.73122 17.2688 2.5 15.75 2.5V1Z" fill="#1E2124"/>
<path d="M1.75 10.5L1 10.5C1 10.0858 1.33579 9.75 1.75 9.75L1.75 10.5ZM1.75 14L1.75 14.75C1.33579 14.75 1 14.4142 1 14L1.75 14ZM2.5 10.5L2.5 14L1 14L1 10.5L2.5 10.5ZM1.75 13.25L5.25 13.25L5.25 14.75L1.75 14.75L1.75 13.25ZM5.25 11.25L1.75 11.25L1.75 9.75L5.25 9.75L5.25 11.25ZM6.25 12.25C6.25 11.6977 5.80228 11.25 5.25 11.25L5.25 9.75C6.63071 9.75 7.75 10.8693 7.75 12.25L6.25 12.25ZM5.25 13.25C5.80228 13.25 6.25 12.8023 6.25 12.25L7.75 12.25C7.75 13.6307 6.63071 14.75 5.25 14.75L5.25 13.25Z" fill="#1E2124"/>
</svg>
