<svg width="19" height="19" viewBox="0 0 19 19" fill="none" xmlns="http://www.w3.org/2000/svg">
<path d="M9.49998 4.37334L8.95099 4.88434C9.09287 5.03676 9.29174 5.12334 9.49998 5.12334C9.70822 5.12334 9.90709 5.03676 10.049 4.88434L9.49998 4.37334ZM10.1056 3.72264L9.55665 3.21165L9.55665 3.21165L10.1056 3.72264ZM8.89432 3.72264L9.4433 3.21165L9.4433 3.21165L8.89432 3.72264ZM2.83768 10.2296L2.28869 10.7406L2.83768 10.2296ZM8.28865 16.0859L8.83764 15.575L8.83764 15.575L8.28865 16.0859ZM10.7113 16.0859L10.1623 15.575L10.7113 16.0859ZM16.1623 10.2296L15.6133 9.71865L15.6133 9.71865L16.1623 10.2296ZM16.1623 3.72264L16.7113 3.21165L16.7113 3.21165L16.1623 3.72264ZM2.83768 3.72264L2.2887 3.21165L2.83768 3.72264ZM10.049 4.88434L10.6546 4.23364L9.55665 3.21165L8.95099 3.86235L10.049 4.88434ZM8.34533 4.23364L8.95099 4.88434L10.049 3.86235L9.4433 3.21165L8.34533 4.23364ZM2.28869 10.7406L7.73966 16.5969L8.83764 15.575L3.38667 9.71865L2.28869 10.7406ZM11.2603 16.5969L16.7113 10.7406L15.6133 9.71865L10.1623 15.575L11.2603 16.5969ZM15.6133 4.23364C17.0178 5.74255 17.0178 8.20974 15.6133 9.71865L16.7113 10.7406C18.6518 8.65583 18.6518 5.29646 16.7113 3.21165L15.6133 4.23364ZM16.7113 3.21165C14.7421 1.09612 11.5258 1.09612 9.55665 3.21165L10.6546 4.23364C12.0305 2.75546 14.2374 2.75546 15.6133 4.23364L16.7113 3.21165ZM3.38667 4.23363C4.76254 2.75545 6.96946 2.75546 8.34533 4.23364L9.4433 3.21165C7.47419 1.09612 4.25781 1.09611 2.2887 3.21165L3.38667 4.23363ZM7.73966 16.5969C8.70528 17.6344 10.2947 17.6344 11.2603 16.5969L10.1623 15.575C9.78994 15.975 9.21002 15.975 8.83764 15.575L7.73966 16.5969ZM2.2887 3.21165C0.348186 5.29646 0.348185 8.65583 2.28869 10.7406L3.38667 9.71865C1.98219 8.20974 1.98219 5.74255 3.38667 4.23363L2.2887 3.21165Z" fill="#1E2124"/>
</svg>
