<svg width="19" height="19" viewBox="0 0 19 19" fill="none" xmlns="http://www.w3.org/2000/svg">
<g clip-path="url(#clip0_76_253)">
<path d="M10.8324 7.98079L11.4632 8.38663L11.4632 8.38663L10.8324 7.98079ZM7.16665 7.12516C7.16665 7.53938 7.50243 7.87516 7.91665 7.87516C8.33086 7.87516 8.66665 7.53938 8.66665 7.12516H7.16665ZM8.74998 10.6877C8.74998 11.1019 9.08577 11.4377 9.49998 11.4377C9.91419 11.4377 10.25 11.1019 10.25 10.6877H8.74998ZM10.25 12.6668C10.25 12.2526 9.91419 11.9168 9.49998 11.9168C9.08577 11.9168 8.74998 12.2526 8.74998 12.6668H10.25ZM8.74998 13.4585C8.74998 13.8727 9.08577 14.2085 9.49998 14.2085C9.91419 14.2085 10.25 13.8727 10.25 13.4585H8.74998ZM16.6666 9.50016C16.6666 13.4582 13.458 16.6668 9.49998 16.6668V18.1668C14.2864 18.1668 18.1666 14.2866 18.1666 9.50016H16.6666ZM9.49998 16.6668C5.54194 16.6668 2.33331 13.4582 2.33331 9.50016H0.833313C0.833313 14.2866 4.71351 18.1668 9.49998 18.1668V16.6668ZM2.33331 9.50016C2.33331 5.54212 5.54194 2.3335 9.49998 2.3335V0.833496C4.71351 0.833496 0.833313 4.71369 0.833313 9.50016H2.33331ZM9.49998 2.3335C13.458 2.3335 16.6666 5.54212 16.6666 9.50016H18.1666C18.1666 4.71369 14.2864 0.833496 9.49998 0.833496V2.3335ZM10.3333 7.12516C10.3333 7.29218 10.285 7.44561 10.2017 7.57495L11.4632 8.38663C11.6975 8.0225 11.8333 7.58855 11.8333 7.12516H10.3333ZM8.66665 7.12516C8.66665 6.66493 9.03974 6.29183 9.49998 6.29183V4.79183C8.21131 4.79183 7.16665 5.8365 7.16665 7.12516H8.66665ZM9.49998 6.29183C9.96022 6.29183 10.3333 6.66493 10.3333 7.12516H11.8333C11.8333 5.8365 10.7886 4.79183 9.49998 4.79183V6.29183ZM8.74998 10.2918V10.6877H10.25V10.2918H8.74998ZM10.2017 7.57495C10.1069 7.72227 9.98678 7.87693 9.84029 8.05898C9.70166 8.23127 9.53318 8.43554 9.38231 8.64289C9.08586 9.05032 8.74998 9.60762 8.74998 10.2918H10.25C10.25 10.1016 10.3437 9.87105 10.5952 9.52541C10.7183 9.35623 10.8534 9.19266 11.0089 8.99932C11.1567 8.81574 11.3214 8.60699 11.4632 8.38663L10.2017 7.57495ZM8.74998 12.6668V13.4585H10.25V12.6668H8.74998Z" fill="#28303F"/>
</g>
<defs>
<clipPath id="clip0_76_253">
<rect width="19" height="19" fill="white"/>
</clipPath>
</defs>
</svg>
