<svg width="19" height="19" viewBox="0 0 19 19" fill="none" xmlns="http://www.w3.org/2000/svg">
<path d="M14.5054 16.6535L14.2513 17.3592L14.2513 17.3592L14.5054 16.6535ZM13.269 16.2084L13.523 15.5027L13.523 15.5027L13.269 16.2084ZM12.0829 16.2543L11.7751 15.5703L11.7751 15.5703L12.0829 16.2543ZM10.1497 17.1242L9.84197 16.4403L9.84197 16.4403L10.1497 17.1242ZM8.85026 17.1242L9.15803 16.4403L9.15803 16.4403L8.85026 17.1242ZM6.91709 16.2543L7.22486 15.5703L7.22486 15.5703L6.91709 16.2543ZM5.73104 16.2084L5.477 15.5027L5.477 15.5027L5.73104 16.2084ZM4.49464 16.6535L4.74868 17.3592L4.74868 17.3592L4.49464 16.6535ZM6.33333 4.79159C5.91912 4.79159 5.58333 5.12737 5.58333 5.54159C5.58333 5.9558 5.91912 6.29159 6.33333 6.29159V4.79159ZM9.5 6.29159C9.91421 6.29159 10.25 5.9558 10.25 5.54159C10.25 5.12737 9.91421 4.79159 9.5 4.79159V6.29159ZM6.33333 7.95825C5.91912 7.95825 5.58333 8.29404 5.58333 8.70825C5.58333 9.12247 5.91912 9.45825 6.33333 9.45825V7.95825ZM12.6667 9.45825C13.0809 9.45825 13.4167 9.12247 13.4167 8.70825C13.4167 8.29404 13.0809 7.95825 12.6667 7.95825V9.45825ZM6.33333 11.1249C5.91912 11.1249 5.58333 11.4607 5.58333 11.8749C5.58333 12.2891 5.91912 12.6249 6.33333 12.6249V11.1249ZM12.6667 12.6249C13.0809 12.6249 13.4167 12.2891 13.4167 11.8749C13.4167 11.4607 13.0809 11.1249 12.6667 11.1249V12.6249ZM3.95833 2.33325H15.0417V0.833252H3.95833V2.33325ZM15.875 3.16659V15.1638H17.375V3.16659H15.875ZM14.7594 15.9478L13.523 15.5027L13.0149 16.9141L14.2513 17.3592L14.7594 15.9478ZM11.7751 15.5703L9.84197 16.4403L10.4575 17.8081L12.3907 16.9382L11.7751 15.5703ZM9.15803 16.4403L7.22486 15.5703L6.60931 16.9382L8.54248 17.8081L9.15803 16.4403ZM5.477 15.5027L4.2406 15.9478L4.74868 17.3592L5.98508 16.9141L5.477 15.5027ZM3.125 15.1638V3.16659H1.625V15.1638H3.125ZM4.2406 15.9478C3.69755 16.1433 3.125 15.7409 3.125 15.1638H1.625C1.625 16.7799 3.22814 17.9066 4.74868 17.3592L4.2406 15.9478ZM7.22486 15.5703C6.67304 15.322 6.04634 15.2978 5.477 15.5027L5.98507 16.9141C6.18841 16.8409 6.41224 16.8495 6.60932 16.9382L7.22486 15.5703ZM9.84197 16.4403C9.62449 16.5381 9.37551 16.5381 9.15803 16.4403L8.54248 17.8081C9.15142 18.0822 9.84858 18.0822 10.4575 17.8081L9.84197 16.4403ZM13.523 15.5027C12.9537 15.2978 12.327 15.322 11.7751 15.5703L12.3907 16.9382C12.5878 16.8495 12.8116 16.8409 13.0149 16.9141L13.523 15.5027ZM15.875 15.1638C15.875 15.7409 15.3025 16.1433 14.7594 15.9478L14.2513 17.3592C15.7719 17.9066 17.375 16.7799 17.375 15.1638H15.875ZM15.0417 2.33325C15.5019 2.33325 15.875 2.70635 15.875 3.16659H17.375C17.375 1.87792 16.3303 0.833252 15.0417 0.833252V2.33325ZM3.95833 0.833252C2.66967 0.833252 1.625 1.87792 1.625 3.16659H3.125C3.125 2.70635 3.4981 2.33325 3.95833 2.33325V0.833252ZM6.33333 6.29159H9.5V4.79159H6.33333V6.29159ZM6.33333 9.45825H12.6667V7.95825H6.33333V9.45825ZM6.33333 12.6249H12.6667V11.1249H6.33333V12.6249Z" fill="#28303F"/>
</svg>
