<svg width="19" height="19" viewBox="0 0 19 19" fill="none" xmlns="http://www.w3.org/2000/svg">
<path d="M8.75002 12.6666C8.75002 13.0808 9.08581 13.4166 9.50002 13.4166C9.91423 13.4166 10.25 13.0808 10.25 12.6666H8.75002ZM10.25 11.0833C10.25 10.669 9.91423 10.3333 9.50002 10.3333C9.08581 10.3333 8.75002 10.669 8.75002 11.0833H10.25ZM6.33335 7.08325H12.6667V5.58325H6.33335V7.08325ZM15.0834 9.49992V14.2499H16.5834V9.49992H15.0834ZM12.6667 16.6666H6.33335V18.1666H12.6667V16.6666ZM3.91669 14.2499V9.49992H2.41669V14.2499H3.91669ZM6.33335 16.6666C4.99867 16.6666 3.91669 15.5846 3.91669 14.2499H2.41669C2.41669 16.413 4.17024 18.1666 6.33335 18.1666V16.6666ZM15.0834 14.2499C15.0834 15.5846 14.0014 16.6666 12.6667 16.6666V18.1666C14.8298 18.1666 16.5834 16.413 16.5834 14.2499H15.0834ZM12.6667 7.08325C14.0014 7.08325 15.0834 8.16523 15.0834 9.49992H16.5834C16.5834 7.3368 14.8298 5.58325 12.6667 5.58325V7.08325ZM6.33335 5.58325C4.17024 5.58325 2.41669 7.3368 2.41669 9.49992H3.91669C3.91669 8.16523 4.99867 7.08325 6.33335 7.08325V5.58325ZM7.08335 6.33325V4.74992H5.58335V6.33325H7.08335ZM11.9167 4.74992V6.33325H13.4167V4.74992H11.9167ZM9.50002 2.33325C10.8347 2.33325 11.9167 3.41523 11.9167 4.74992H13.4167C13.4167 2.5868 11.6631 0.833252 9.50002 0.833252V2.33325ZM7.08335 4.74992C7.08335 3.41523 8.16533 2.33325 9.50002 2.33325V0.833252C7.3369 0.833252 5.58335 2.5868 5.58335 4.74992H7.08335ZM10.25 12.6666V11.0833H8.75002V12.6666H10.25Z" fill="#1E2124"/>
</svg>
