<svg width="19" height="19" viewBox="0 0 19 19" fill="none" xmlns="http://www.w3.org/2000/svg">
<path d="M4.75 16.6666C4.33579 16.6666 4 17.0024 4 17.4166C4 17.8308 4.33579 18.1666 4.75 18.1666V16.6666ZM14.25 18.1666C14.6642 18.1666 15 17.8308 15 17.4166C15 17.0024 14.6642 16.6666 14.25 16.6666V18.1666ZM14.6875 7.52075C14.6875 8.81812 13.8513 10.5305 12.6684 11.9712C12.0896 12.6762 11.4602 13.2753 10.8716 13.6912C10.2597 14.1236 9.78597 14.2916 9.5 14.2916V15.7916C10.2531 15.7916 11.0411 15.4081 11.7373 14.9162C12.4568 14.4078 13.1819 13.7096 13.8277 12.923C15.0941 11.3806 16.1875 9.33254 16.1875 7.52075H14.6875ZM9.5 14.2916C9.22919 14.2916 8.76221 14.1185 8.14585 13.6558C7.55597 13.2129 6.92452 12.5763 6.34312 11.8316C5.15535 10.3103 4.3125 8.51765 4.3125 7.21288H2.8125C2.8125 9.01727 3.89934 11.139 5.16079 12.7547C5.804 13.5786 6.52703 14.3161 7.24526 14.8554C7.93701 15.3747 8.73175 15.7916 9.5 15.7916V14.2916ZM4.3125 7.21288C4.3125 4.43884 6.78399 2.33325 9.5 2.33325V0.833252C6.09486 0.833252 2.8125 3.47766 2.8125 7.21288H4.3125ZM9.5 2.33325C12.1884 2.33325 14.6875 4.41329 14.6875 7.52075H16.1875C16.1875 3.50322 12.9328 0.833252 9.5 0.833252V2.33325ZM11.125 7.12492C11.125 8.02238 10.3975 8.74992 9.5 8.74992V10.2499C11.2259 10.2499 12.625 8.85081 12.625 7.12492H11.125ZM9.5 8.74992C8.60254 8.74992 7.875 8.02238 7.875 7.12492H6.375C6.375 8.85081 7.77411 10.2499 9.5 10.2499V8.74992ZM7.875 7.12492C7.875 6.22746 8.60254 5.49992 9.5 5.49992V3.99992C7.77411 3.99992 6.375 5.39903 6.375 7.12492H7.875ZM9.5 5.49992C10.3975 5.49992 11.125 6.22746 11.125 7.12492H12.625C12.625 5.39903 11.2259 3.99992 9.5 3.99992V5.49992ZM4.75 18.1666H14.25V16.6666H4.75V18.1666Z" fill="#28303F"/>
</svg>
