<svg width="19" height="19" viewBox="0 0 19 19" fill="none" xmlns="http://www.w3.org/2000/svg">
<path d="M15.8111 4.60497L15.1194 4.89507L15.1194 4.89507L15.8111 4.60497ZM15.1802 5.04002C15.3405 5.422 15.78 5.60176 16.162 5.44154C16.5439 5.28132 16.7237 4.84178 16.5635 4.45981L15.1802 5.04002ZM13.3411 1.28273C12.9565 1.12889 12.52 1.31595 12.3662 1.70054C12.2123 2.08513 12.3994 2.52161 12.784 2.67544L13.3411 1.28273ZM13.1949 2.03204L12.9164 2.7284L12.9164 2.7284L13.1949 2.03204ZM3.22749 4.60497L3.91911 4.89507L3.91911 4.89507L3.22749 4.60497ZM2.47507 4.45981C2.31485 4.84178 2.49461 5.28132 2.87658 5.44154C3.25855 5.60176 3.69809 5.422 3.85831 5.04002L2.47507 4.45981ZM6.25457 2.67544C6.63916 2.52161 6.82622 2.08513 6.67239 1.70054C6.51855 1.31595 6.08208 1.12889 5.69749 1.28273L6.25457 2.67544ZM5.84364 2.03204L5.5651 1.33568L5.5651 1.33568L5.84364 2.03204ZM14.4397 7.10527L13.6944 7.18985L13.6944 7.18985L14.4397 7.10527ZM14.7937 10.2245L15.5389 10.1399L15.5389 10.1399L14.7937 10.2245ZM4.20636 10.2245L3.46115 10.1399L3.46115 10.1399L4.20636 10.2245ZM4.56039 7.10527L5.3056 7.18985L4.56039 7.10527ZM3.52118 11.7737L2.95008 11.2875L2.95008 11.2875L3.52118 11.7737ZM15.4789 11.7737L14.9078 12.2598L14.9078 12.2598L15.4789 11.7737ZM11.2971 3.4624H10.5471C10.5471 3.78298 10.7508 4.06812 11.0541 4.17196L11.2971 3.4624ZM7.70298 3.4624L7.94593 4.17196C8.24922 4.06812 8.45298 3.78298 8.45298 3.4624H7.70298ZM12.5773 16.0965C12.7227 15.7086 12.5261 15.2763 12.1382 15.131C11.7504 14.9856 11.3181 15.1822 11.1727 15.57L12.5773 16.0965ZM7.82732 15.57C7.68196 15.1822 7.24969 14.9856 6.86182 15.131C6.47395 15.2763 6.27736 15.7086 6.42272 16.0965L7.82732 15.57ZM15.1194 4.89507L15.1802 5.04002L16.5635 4.45981L16.5027 4.31486L15.1194 4.89507ZM12.784 2.67544L12.9164 2.7284L13.4735 1.33568L13.3411 1.28273L12.784 2.67544ZM16.5027 4.31486C15.9328 2.95613 14.8415 1.8829 13.4734 1.33568L12.9164 2.7284C13.9113 3.12637 14.705 3.90691 15.1194 4.89507L16.5027 4.31486ZM2.53587 4.31486L2.47507 4.45981L3.85831 5.04002L3.91911 4.89507L2.53587 4.31486ZM5.69749 1.28273L5.5651 1.33568L6.12219 2.7284L6.25457 2.67544L5.69749 1.28273ZM3.91911 4.89507C4.3336 3.90691 5.12725 3.12637 6.12219 2.7284L5.5651 1.33568C4.19707 1.8829 3.1058 2.95614 2.53587 4.31486L3.91911 4.89507ZM14.0736 13.4999H4.92641V14.9999H14.0736V13.4999ZM13.6944 7.18985L14.0485 10.3091L15.5389 10.1399L15.1849 7.02069L13.6944 7.18985ZM4.95158 10.3091L5.3056 7.18985L3.81517 7.02069L3.46115 10.1399L4.95158 10.3091ZM4.09229 12.2598C4.56843 11.7005 4.87015 11.0266 4.95158 10.3091L3.46115 10.1399C3.41506 10.546 3.24289 10.9435 2.95008 11.2875L4.09229 12.2598ZM14.0485 10.3091C14.1299 11.0266 14.4316 11.7005 14.9077 12.2598L16.05 11.2875C15.7571 10.9435 15.585 10.546 15.5389 10.1399L14.0485 10.3091ZM4.92641 13.4999C4.46183 13.4999 4.14807 13.2718 4.00761 13.0242C3.87455 12.7898 3.87481 12.5153 4.09229 12.2598L2.95008 11.2875C2.29908 12.0523 2.27822 13.016 2.70303 13.7646C3.12044 14.5001 3.94353 14.9999 4.92641 14.9999V13.4999ZM14.0736 14.9999C15.0565 14.9999 15.8796 14.5001 16.297 13.7646C16.7218 13.016 16.701 12.0523 16.05 11.2875L14.9078 12.2598C15.1252 12.5153 15.1255 12.7898 14.9924 13.0242C14.852 13.2718 14.5382 13.4999 14.0736 13.4999V14.9999ZM12.0471 3.4624V3.38029H10.5471V3.4624H12.0471ZM15.1849 7.02069C14.9559 5.00296 13.4613 3.41068 11.54 2.75284L11.0541 4.17196C12.5249 4.67554 13.5417 5.84371 13.6944 7.18985L15.1849 7.02069ZM8.45298 3.4624V3.38029H6.95298V3.4624H8.45298ZM5.3056 7.18985C5.45839 5.84371 6.47513 4.67554 7.94593 4.17196L7.46003 2.75284C5.5387 3.41068 4.04418 5.00296 3.81517 7.02069L5.3056 7.18985ZM9.50002 2.33325C10.0783 2.33325 10.5471 2.80203 10.5471 3.38029H12.0471C12.0471 1.9736 10.9067 0.833252 9.50002 0.833252V2.33325ZM9.50002 0.833252C8.09333 0.833252 6.95298 1.9736 6.95298 3.38029H8.45298C8.45298 2.80203 8.92176 2.33325 9.50002 2.33325V0.833252ZM11.1727 15.57C10.941 16.1884 10.2961 16.6666 9.50002 16.6666V18.1666C10.897 18.1666 12.1176 17.323 12.5773 16.0965L11.1727 15.57ZM9.50002 16.6666C8.70399 16.6666 8.05906 16.1884 7.82732 15.57L6.42272 16.0965C6.8824 17.323 8.10309 18.1666 9.50002 18.1666V16.6666Z" fill="#28303F"/>
</svg>
