<svg width="21" height="21" viewBox="0 0 21 21" fill="none" xmlns="http://www.w3.org/2000/svg">
<path d="M16.2232 3.25734L15.6596 3.75211L15.6596 3.75212L16.2232 3.25734ZM18.78 6.17006L19.3437 5.67528L19.3437 5.67528L18.78 6.17006ZM18.8642 8.57041L19.4614 9.02409L19.4614 9.02409L18.8642 8.57041ZM11.9747 17.6397L11.3775 17.186L11.3775 17.186L11.9747 17.6397ZM9.0253 17.6397L9.62252 17.186L9.62252 17.186L9.0253 17.6397ZM2.13583 8.57041L1.53861 9.02409L1.53861 9.02409L2.13583 8.57041ZM2.21996 6.17006L2.7836 6.66483L2.7836 6.66483L2.21996 6.17006ZM4.77679 3.25734L4.21314 2.76256L4.21314 2.76256L4.77679 3.25734ZM18.8724 8.085C19.2866 8.085 19.6224 7.74921 19.6224 7.335C19.6224 6.92078 19.2866 6.585 18.8724 6.585V8.085ZM10.5 18.168L9.79068 18.4116C9.89474 18.7146 10.1797 18.918 10.5 18.918C10.8203 18.918 11.1053 18.7146 11.2093 18.4116L10.5 18.168ZM2.12762 6.585C1.7134 6.585 1.37762 6.92078 1.37762 7.335C1.37762 7.74921 1.7134 8.085 2.12762 8.085V6.585ZM15.6596 3.75212L18.2164 6.66483L19.3437 5.67528L16.7869 2.76256L15.6596 3.75212ZM18.2669 8.11673L11.3775 17.186L12.5719 18.0934L19.4614 9.02409L18.2669 8.11673ZM9.62252 17.186L2.73306 8.11673L1.53861 9.02409L8.42808 18.0934L9.62252 17.186ZM2.7836 6.66483L5.34043 3.75211L4.21314 2.76256L1.65631 5.67528L2.7836 6.66483ZM12.3605 3.375H14.8326V1.875H12.3605V3.375ZM14.2211 8.085H18.8724V6.585H14.2211V8.085ZM11.663 2.90054L13.5235 7.61054L14.9186 7.05945L13.0581 2.34946L11.663 2.90054ZM11.2093 18.4116L14.9304 7.57864L13.5117 7.09135L9.79068 17.9243L11.2093 18.4116ZM6.16736 3.375H8.8462V1.875H6.16736V3.375ZM8.8462 3.375H12.3605V1.875H8.8462V3.375ZM2.12762 8.085H6.77894V6.585H2.12762V8.085ZM6.77894 8.085H14.2211V6.585H6.77894V8.085ZM8.15943 2.32357L6.09218 7.03357L7.4657 7.63642L9.53296 2.92643L8.15943 2.32357ZM11.2093 17.9243L7.48826 7.09135L6.06962 7.57864L9.79068 18.4116L11.2093 17.9243ZM2.73306 8.11673C2.40392 7.68345 2.42577 7.07247 2.7836 6.66483L1.65631 5.67528C0.82741 6.61956 0.778642 8.02367 1.53861 9.02409L2.73306 8.11673ZM11.3775 17.186C10.9328 17.7713 10.0672 17.7713 9.62252 17.186L8.42808 18.0934C9.47297 19.4689 11.527 19.4689 12.5719 18.0934L11.3775 17.186ZM18.2164 6.66483C18.5742 7.07247 18.5961 7.68345 18.2669 8.11673L19.4614 9.02409C20.2214 8.02367 20.1726 6.61956 19.3437 5.67528L18.2164 6.66483ZM16.7869 2.76256C16.2925 2.19945 15.5817 1.875 14.8326 1.875V3.375C15.1465 3.375 15.4477 3.51081 15.6596 3.75211L16.7869 2.76256ZM5.34043 3.75211C5.55226 3.51081 5.85353 3.375 6.16736 3.375V1.875C5.41832 1.875 4.70745 2.19945 4.21314 2.76256L5.34043 3.75211Z" fill="#28303F"/>
</svg>
