<svg width="36" height="36" viewBox="0 0 36 36" fill="none" xmlns="http://www.w3.org/2000/svg">
<path fill-rule="evenodd" clip-rule="evenodd" d="M18 0C16.8954 0 16 0.895431 16 2C16 3.10457 16.8954 4 18 4H34C35.1046 4 36 3.10457 36 2C36 0.895431 35.1046 0 34 0H18ZM2 10.6667C0.895431 10.6667 0 11.5621 0 12.6667C0 13.7712 0.895431 14.6667 2 14.6667H34C35.1046 14.6667 36 13.7712 36 12.6667C36 11.5621 35.1046 10.6667 34 10.6667H2ZM16 23.3333C16 22.2288 16.8954 21.3333 18 21.3333H34C35.1046 21.3333 36 22.2288 36 23.3333C36 24.4379 35.1046 25.3333 34 25.3333H18C16.8954 25.3333 16 24.4379 16 23.3333ZM2 32C0.895431 32 0 32.8954 0 34C0 35.1046 0.895431 36 2 36H34C35.1046 36 36 35.1046 36 34C36 32.8954 35.1046 32 34 32H2Z" fill="#0080FF"/>
</svg>
