<svg width="414" height="896" viewBox="0 0 414 896" fill="none" xmlns="http://www.w3.org/2000/svg">
<rect width="414" height="896" fill="white"/>
<path d="M90.9167 404.667C90.9167 405.081 91.2525 405.417 91.6667 405.417C92.0809 405.417 92.4167 405.081 92.4167 404.667H90.9167ZM92.4167 400.333C92.4167 399.919 92.0809 399.583 91.6667 399.583C91.2525 399.583 90.9167 399.919 90.9167 400.333H92.4167ZM99.5833 404.667C99.5833 405.081 99.9191 405.417 100.333 405.417C100.748 405.417 101.083 405.081 101.083 404.667H99.5833ZM101.083 400.333C101.083 399.919 100.748 399.583 100.333 399.583C99.9191 399.583 99.5833 399.919 99.5833 400.333H101.083ZM101.083 439.333C101.083 438.919 100.748 438.583 100.333 438.583C99.9191 438.583 99.5833 438.919 99.5833 439.333H101.083ZM99.5833 443.667C99.5833 444.081 99.9191 444.417 100.333 444.417C100.748 444.417 101.083 444.081 101.083 443.667H99.5833ZM92.4167 439.333C92.4167 438.919 92.0809 438.583 91.6667 438.583C91.2525 438.583 90.9167 438.919 90.9167 439.333H92.4167ZM90.9167 443.667C90.9167 444.081 91.2525 444.417 91.6667 444.417C92.0809 444.417 92.4167 444.081 92.4167 443.667H90.9167ZM113.333 416.917C112.919 416.917 112.583 417.252 112.583 417.667C112.583 418.081 112.919 418.417 113.333 418.417V416.917ZM117.667 418.417C118.081 418.417 118.417 418.081 118.417 417.667C118.417 417.252 118.081 416.917 117.667 416.917V418.417ZM113.333 425.583C112.919 425.583 112.583 425.919 112.583 426.333C112.583 426.748 112.919 427.083 113.333 427.083V425.583ZM117.667 427.083C118.081 427.083 118.417 426.748 118.417 426.333C118.417 425.919 118.081 425.583 117.667 425.583V427.083ZM78.6667 418.417C79.0809 418.417 79.4167 418.081 79.4167 417.667C79.4167 417.252 79.0809 416.917 78.6667 416.917V418.417ZM74.3333 416.917C73.9191 416.917 73.5833 417.252 73.5833 417.667C73.5833 418.081 73.9191 418.417 74.3333 418.417V416.917ZM78.6667 427.083C79.0809 427.083 79.4167 426.748 79.4167 426.333C79.4167 425.919 79.0809 425.583 78.6667 425.583V427.083ZM74.3333 425.583C73.9191 425.583 73.5833 425.919 73.5833 426.333C73.5833 426.748 73.9191 427.083 74.3333 427.083V425.583ZM87.3333 405.417H104.667V403.917H87.3333V405.417ZM112.583 413.333V430.667H114.083V413.333H112.583ZM104.667 438.583H87.3333V440.083H104.667V438.583ZM79.4167 430.667V413.333H77.9167V430.667H79.4167ZM87.3333 438.583C82.9611 438.583 79.4167 435.039 79.4167 430.667H77.9167C77.9167 435.867 82.1327 440.083 87.3333 440.083V438.583ZM112.583 430.667C112.583 435.039 109.039 438.583 104.667 438.583V440.083C109.867 440.083 114.083 435.867 114.083 430.667H112.583ZM104.667 405.417C109.039 405.417 112.583 408.961 112.583 413.333H114.083C114.083 408.133 109.867 403.917 104.667 403.917V405.417ZM87.3333 403.917C82.1327 403.917 77.9167 408.133 77.9167 413.333H79.4167C79.4167 408.961 82.9611 405.417 87.3333 405.417V403.917ZM93.8333 416.25H98.1667V414.75H93.8333V416.25ZM101.75 419.833V424.167H103.25V419.833H101.75ZM98.1667 427.75H93.8333V429.25H98.1667V427.75ZM90.25 424.167V419.833H88.75V424.167H90.25ZM93.8333 427.75C91.8543 427.75 90.25 426.146 90.25 424.167H88.75C88.75 426.974 91.0259 429.25 93.8333 429.25V427.75ZM101.75 424.167C101.75 426.146 100.146 427.75 98.1667 427.75V429.25C100.974 429.25 103.25 426.974 103.25 424.167H101.75ZM98.1667 416.25C100.146 416.25 101.75 417.854 101.75 419.833H103.25C103.25 417.026 100.974 414.75 98.1667 414.75V416.25ZM93.8333 414.75C91.0259 414.75 88.75 417.026 88.75 419.833H90.25C90.25 417.854 91.8543 416.25 93.8333 416.25V414.75ZM92.4167 404.667V400.333H90.9167V404.667H92.4167ZM101.083 404.667V400.333H99.5833V404.667H101.083ZM99.5833 439.333V443.667H101.083V439.333H99.5833ZM90.9167 439.333V443.667H92.4167V439.333H90.9167ZM113.333 418.417H117.667V416.917H113.333V418.417ZM113.333 427.083H117.667V425.583H113.333V427.083ZM78.6667 416.917H74.3333V418.417H78.6667V416.917ZM78.6667 425.583H74.3333V427.083H78.6667V425.583Z" fill="#28303F"/>
<path d="M141.139 434C140.899 434 140.695 433.916 140.527 433.748C140.359 433.58 140.275 433.376 140.275 433.136V409.7C140.275 409.436 140.359 409.22 140.527 409.052C140.695 408.884 140.899 408.8 141.139 408.8H150.463C153.367 408.8 155.659 409.472 157.339 410.816C159.019 412.16 159.859 414.116 159.859 416.684C159.859 418.46 159.415 419.936 158.527 421.112C157.663 422.288 156.499 423.14 155.035 423.668L160.291 432.848C160.363 432.992 160.399 433.124 160.399 433.244C160.399 433.46 160.315 433.64 160.147 433.784C160.003 433.928 159.835 434 159.643 434H156.367C155.959 434 155.647 433.892 155.431 433.676C155.215 433.46 155.047 433.244 154.927 433.028L150.283 424.496H145.279V433.136C145.279 433.376 145.195 433.58 145.027 433.748C144.883 433.916 144.679 434 144.415 434H141.139ZM145.279 420.428H150.355C151.819 420.428 152.911 420.104 153.631 419.456C154.351 418.784 154.711 417.848 154.711 416.648C154.711 415.448 154.351 414.512 153.631 413.84C152.935 413.144 151.843 412.796 150.355 412.796H145.279V420.428ZM162.949 434C162.757 434 162.577 433.928 162.409 433.784C162.265 433.64 162.193 433.46 162.193 433.244C162.193 433.148 162.217 433.04 162.265 432.92L170.941 409.7C171.013 409.46 171.145 409.256 171.337 409.088C171.553 408.896 171.841 408.8 172.201 408.8H176.125C176.485 408.8 176.761 408.896 176.953 409.088C177.145 409.256 177.289 409.46 177.385 409.7L186.061 432.92C186.085 433.04 186.097 433.148 186.097 433.244C186.097 433.46 186.025 433.64 185.881 433.784C185.737 433.928 185.569 434 185.377 434H182.245C181.909 434 181.657 433.928 181.489 433.784C181.345 433.616 181.249 433.46 181.201 433.316L179.509 428.924H168.817L167.125 433.316C167.077 433.46 166.969 433.616 166.801 433.784C166.657 433.928 166.417 434 166.081 434H162.949ZM170.077 424.784H178.249L174.145 413.66L170.077 424.784ZM198.686 434.36C196.454 434.36 194.558 433.976 192.998 433.208C191.462 432.416 190.286 431.3 189.47 429.86C188.654 428.396 188.198 426.644 188.102 424.604C188.078 423.62 188.066 422.564 188.066 421.436C188.066 420.308 188.078 419.228 188.102 418.196C188.198 416.18 188.654 414.44 189.47 412.976C190.31 411.512 191.498 410.396 193.034 409.628C194.594 408.836 196.478 408.44 198.686 408.44C200.318 408.44 201.782 408.656 203.078 409.088C204.374 409.52 205.478 410.12 206.39 410.888C207.302 411.632 208.01 412.508 208.514 413.516C209.018 414.524 209.282 415.616 209.306 416.792C209.33 417.008 209.258 417.188 209.09 417.332C208.946 417.476 208.766 417.548 208.55 417.548H205.13C204.866 417.548 204.65 417.488 204.482 417.368C204.314 417.224 204.194 416.996 204.122 416.684C203.738 415.1 203.078 414.02 202.142 413.444C201.206 412.868 200.042 412.58 198.65 412.58C197.042 412.58 195.758 413.036 194.798 413.948C193.838 414.836 193.322 416.312 193.25 418.376C193.178 420.344 193.178 422.36 193.25 424.424C193.322 426.488 193.838 427.976 194.798 428.888C195.758 429.776 197.042 430.22 198.65 430.22C200.042 430.22 201.206 429.932 202.142 429.356C203.078 428.756 203.738 427.676 204.122 426.116C204.194 425.78 204.314 425.552 204.482 425.432C204.65 425.312 204.866 425.252 205.13 425.252H208.55C208.766 425.252 208.946 425.324 209.09 425.468C209.258 425.612 209.33 425.792 209.306 426.008C209.282 427.184 209.018 428.276 208.514 429.284C208.01 430.292 207.302 431.18 206.39 431.948C205.478 432.692 204.374 433.28 203.078 433.712C201.782 434.144 200.318 434.36 198.686 434.36ZM214.44 434C214.2 434 213.996 433.916 213.828 433.748C213.66 433.58 213.576 433.376 213.576 433.136V409.664C213.576 409.424 213.66 409.22 213.828 409.052C213.996 408.884 214.2 408.8 214.44 408.8H217.824C218.088 408.8 218.292 408.884 218.436 409.052C218.604 409.22 218.688 409.424 218.688 409.664V433.136C218.688 433.376 218.604 433.58 218.436 433.748C218.292 433.916 218.088 434 217.824 434H214.44ZM225.197 434C224.957 434 224.753 433.916 224.585 433.748C224.417 433.58 224.333 433.376 224.333 433.136V409.7C224.333 409.436 224.417 409.22 224.585 409.052C224.753 408.884 224.957 408.8 225.197 408.8H228.365C228.629 408.8 228.845 408.884 229.013 409.052C229.181 409.22 229.265 409.436 229.265 409.7V418.124L237.401 409.448C237.497 409.328 237.653 409.196 237.869 409.052C238.109 408.884 238.421 408.8 238.805 408.8H242.369C242.561 408.8 242.729 408.872 242.873 409.016C243.041 409.16 243.125 409.34 243.125 409.556C243.125 409.724 243.077 409.868 242.981 409.988L233.081 420.86L243.665 432.776C243.785 432.92 243.845 433.076 243.845 433.244C243.845 433.46 243.761 433.64 243.593 433.784C243.449 433.928 243.281 434 243.089 434H239.381C238.973 434 238.649 433.916 238.409 433.748C238.193 433.556 238.049 433.424 237.977 433.352L229.265 423.812V433.136C229.265 433.376 229.181 433.58 229.013 433.748C228.845 433.916 228.629 434 228.365 434H225.197ZM255.463 434.36C253.327 434.36 251.491 434.012 249.955 433.316C248.419 432.596 247.219 431.504 246.355 430.04C245.491 428.552 245.023 426.704 244.951 424.496C244.927 423.464 244.915 422.444 244.915 421.436C244.915 420.428 244.927 419.396 244.951 418.34C245.023 416.156 245.503 414.332 246.391 412.868C247.279 411.404 248.491 410.3 250.027 409.556C251.587 408.812 253.399 408.44 255.463 408.44C257.527 408.44 259.339 408.812 260.899 409.556C262.459 410.3 263.683 411.404 264.571 412.868C265.459 414.332 265.939 416.156 266.011 418.34C266.059 419.396 266.083 420.428 266.083 421.436C266.083 422.444 266.059 423.464 266.011 424.496C265.939 426.704 265.471 428.552 264.607 430.04C263.743 431.504 262.531 432.596 260.971 433.316C259.435 434.012 257.599 434.36 255.463 434.36ZM255.463 430.22C257.023 430.22 258.295 429.764 259.279 428.852C260.263 427.916 260.791 426.404 260.863 424.316C260.911 423.26 260.935 422.288 260.935 421.4C260.935 420.488 260.911 419.516 260.863 418.484C260.815 417.092 260.551 415.964 260.071 415.1C259.615 414.212 258.991 413.576 258.199 413.192C257.407 412.784 256.495 412.58 255.463 412.58C254.455 412.58 253.555 412.784 252.763 413.192C251.971 413.576 251.335 414.212 250.855 415.1C250.399 415.964 250.147 417.092 250.099 418.484C250.075 419.516 250.063 420.488 250.063 421.4C250.063 422.288 250.075 423.26 250.099 424.316C250.171 426.404 250.699 427.916 251.683 428.852C252.667 429.764 253.927 430.22 255.463 430.22ZM271.71 434C271.446 434 271.23 433.916 271.062 433.748C270.894 433.58 270.81 433.376 270.81 433.136V409.7C270.81 409.436 270.894 409.22 271.062 409.052C271.23 408.884 271.446 408.8 271.71 408.8H274.554C274.89 408.8 275.142 408.896 275.31 409.088C275.478 409.256 275.586 409.388 275.634 409.484L282.582 422.444L289.602 409.484C289.65 409.388 289.758 409.256 289.926 409.088C290.094 408.896 290.346 408.8 290.682 408.8H293.49C293.754 408.8 293.97 408.884 294.138 409.052C294.306 409.22 294.39 409.436 294.39 409.7V433.136C294.39 433.376 294.306 433.58 294.138 433.748C293.97 433.916 293.754 434 293.49 434H290.466C290.202 434 289.986 433.916 289.818 433.748C289.674 433.58 289.602 433.376 289.602 433.136V417.548L284.562 427.16C284.442 427.376 284.286 427.568 284.094 427.736C283.902 427.88 283.65 427.952 283.338 427.952H281.862C281.526 427.952 281.262 427.88 281.07 427.736C280.902 427.568 280.758 427.376 280.638 427.16L275.598 417.548V433.136C275.598 433.376 275.514 433.58 275.346 433.748C275.178 433.916 274.974 434 274.734 434H271.71ZM300.03 434C299.79 434 299.586 433.916 299.418 433.748C299.25 433.58 299.166 433.376 299.166 433.136V429.572C299.166 429.308 299.25 429.092 299.418 428.924C299.586 428.756 299.79 428.672 300.03 428.672H303.63C303.87 428.672 304.074 428.756 304.242 428.924C304.41 429.092 304.494 429.308 304.494 429.572V433.136C304.494 433.376 304.41 433.58 304.242 433.748C304.074 433.916 303.87 434 303.63 434H300.03ZM310.135 434C309.895 434 309.691 433.916 309.523 433.748C309.355 433.58 309.271 433.376 309.271 433.136V409.664C309.271 409.424 309.355 409.22 309.523 409.052C309.691 408.884 309.895 408.8 310.135 408.8H313.519C313.783 408.8 313.987 408.884 314.131 409.052C314.299 409.22 314.383 409.424 314.383 409.664V433.136C314.383 433.376 314.299 433.58 314.131 433.748C313.987 433.916 313.783 434 313.519 434H310.135ZM320.893 434C320.653 434 320.449 433.916 320.281 433.748C320.113 433.58 320.029 433.376 320.029 433.136V409.7C320.029 409.436 320.113 409.22 320.281 409.052C320.449 408.884 320.653 408.8 320.893 408.8H329.677C332.101 408.8 334.093 409.172 335.653 409.916C337.237 410.66 338.425 411.764 339.217 413.228C340.033 414.692 340.453 416.48 340.477 418.592C340.525 419.648 340.549 420.584 340.549 421.4C340.549 422.216 340.525 423.14 340.477 424.172C340.429 426.404 340.021 428.252 339.253 429.716C338.485 431.156 337.321 432.236 335.761 432.956C334.225 433.652 332.257 434 329.857 434H320.893ZM325.033 429.86H329.677C331.021 429.86 332.113 429.668 332.953 429.284C333.793 428.9 334.405 428.288 334.789 427.448C335.197 426.584 335.413 425.456 335.437 424.064C335.461 423.344 335.473 422.72 335.473 422.192C335.497 421.64 335.497 421.1 335.473 420.572C335.473 420.02 335.461 419.396 335.437 418.7C335.389 416.732 334.897 415.28 333.961 414.344C333.025 413.408 331.537 412.94 329.497 412.94H325.033V429.86Z" fill="black"/>
</svg>
