<svg width="381" height="38" viewBox="0 0 381 38" fill="none" xmlns="http://www.w3.org/2000/svg">
<path d="M15.0834 6.33333C15.0834 6.74754 15.4191 7.08333 15.8334 7.08333C16.2476 7.08333 16.5834 6.74754 16.5834 6.33333H15.0834ZM16.5834 3.16666C16.5834 2.75245 16.2476 2.41666 15.8334 2.41666C15.4191 2.41666 15.0834 2.75245 15.0834 3.16666H16.5834ZM21.4167 6.33333C21.4167 6.74754 21.7525 7.08333 22.1667 7.08333C22.5809 7.08333 22.9167 6.74754 22.9167 6.33333H21.4167ZM22.9167 3.16666C22.9167 2.75245 22.5809 2.41666 22.1667 2.41666C21.7525 2.41666 21.4167 2.75245 21.4167 3.16666H22.9167ZM22.9167 31.6667C22.9167 31.2524 22.5809 30.9167 22.1667 30.9167C21.7525 30.9167 21.4167 31.2524 21.4167 31.6667H22.9167ZM21.4167 34.8333C21.4167 35.2475 21.7525 35.5833 22.1667 35.5833C22.5809 35.5833 22.9167 35.2475 22.9167 34.8333H21.4167ZM16.5834 31.6667C16.5834 31.2524 16.2476 30.9167 15.8334 30.9167C15.4191 30.9167 15.0834 31.2524 15.0834 31.6667H16.5834ZM15.0834 34.8333C15.0834 35.2475 15.4191 35.5833 15.8334 35.5833C16.2476 35.5833 16.5834 35.2475 16.5834 34.8333H15.0834ZM31.6667 15.0833C31.2525 15.0833 30.9167 15.4191 30.9167 15.8333C30.9167 16.2475 31.2525 16.5833 31.6667 16.5833V15.0833ZM34.8334 16.5833C35.2476 16.5833 35.5834 16.2475 35.5834 15.8333C35.5834 15.4191 35.2476 15.0833 34.8334 15.0833V16.5833ZM31.6667 21.4167C31.2525 21.4167 30.9167 21.7524 30.9167 22.1667C30.9167 22.5809 31.2525 22.9167 31.6667 22.9167V21.4167ZM34.8334 22.9167C35.2476 22.9167 35.5834 22.5809 35.5834 22.1667C35.5834 21.7524 35.2476 21.4167 34.8334 21.4167V22.9167ZM6.33335 16.5833C6.74757 16.5833 7.08335 16.2475 7.08335 15.8333C7.08335 15.4191 6.74757 15.0833 6.33335 15.0833V16.5833ZM3.16669 15.0833C2.75247 15.0833 2.41669 15.4191 2.41669 15.8333C2.41669 16.2475 2.75247 16.5833 3.16669 16.5833V15.0833ZM6.33335 22.9167C6.74757 22.9167 7.08335 22.5809 7.08335 22.1667C7.08335 21.7524 6.74757 21.4167 6.33335 21.4167V22.9167ZM3.16669 21.4167C2.75247 21.4167 2.41669 21.7524 2.41669 22.1667C2.41669 22.5809 2.75247 22.9167 3.16669 22.9167V21.4167ZM12.6667 7.08333H25.3334V5.58333H12.6667V7.08333ZM30.9167 12.6667V25.3333H32.4167V12.6667H30.9167ZM25.3334 30.9167H12.6667V32.4167H25.3334V30.9167ZM7.08335 25.3333V12.6667H5.58335V25.3333H7.08335ZM12.6667 30.9167C9.5831 30.9167 7.08335 28.4169 7.08335 25.3333H5.58335C5.58335 29.2453 8.75467 32.4167 12.6667 32.4167V30.9167ZM30.9167 25.3333C30.9167 28.4169 28.4169 30.9167 25.3334 30.9167V32.4167C29.2454 32.4167 32.4167 29.2453 32.4167 25.3333H30.9167ZM25.3334 7.08333C28.4169 7.08333 30.9167 9.58307 30.9167 12.6667H32.4167C32.4167 8.75465 29.2454 5.58333 25.3334 5.58333V7.08333ZM12.6667 5.58333C8.75467 5.58333 5.58335 8.75465 5.58335 12.6667H7.08335C7.08335 9.58307 9.5831 7.08333 12.6667 7.08333V5.58333ZM17.4167 15H20.5834V13.5H17.4167V15ZM23 17.4167V20.5833H24.5V17.4167H23ZM20.5834 23H17.4167V24.5H20.5834V23ZM15 20.5833V17.4167H13.5V20.5833H15ZM17.4167 23C16.082 23 15 21.918 15 20.5833H13.5C13.5 22.7464 15.2536 24.5 17.4167 24.5V23ZM23 20.5833C23 21.918 21.918 23 20.5834 23V24.5C22.7465 24.5 24.5 22.7464 24.5 20.5833H23ZM20.5834 15C21.918 15 23 16.082 23 17.4167H24.5C24.5 15.2535 22.7465 13.5 20.5834 13.5V15ZM17.4167 13.5C15.2536 13.5 13.5 15.2535 13.5 17.4167H15C15 16.082 16.082 15 17.4167 15V13.5ZM16.5834 6.33333V3.16666H15.0834V6.33333H16.5834ZM22.9167 6.33333V3.16666H21.4167V6.33333H22.9167ZM21.4167 31.6667V34.8333H22.9167V31.6667H21.4167ZM15.0834 31.6667V34.8333H16.5834V31.6667H15.0834ZM31.6667 16.5833H34.8334V15.0833H31.6667V16.5833ZM31.6667 22.9167H34.8334V21.4167H31.6667V22.9167ZM6.33335 15.0833H3.16669V16.5833H6.33335V15.0833ZM6.33335 21.4167H3.16669V22.9167H6.33335V21.4167Z" fill="#28303F"/>
<path fill-rule="evenodd" clip-rule="evenodd" d="M363 0C361.895 0 361 0.895431 361 2C361 3.10457 361.895 4 363 4H379C380.105 4 381 3.10457 381 2C381 0.895431 380.105 0 379 0H363ZM347 10.6667C345.895 10.6667 345 11.5621 345 12.6667C345 13.7712 345.895 14.6667 347 14.6667H379C380.105 14.6667 381 13.7712 381 12.6667C381 11.5621 380.105 10.6667 379 10.6667H347ZM361 23.3333C361 22.2288 361.895 21.3333 363 21.3333H379C380.105 21.3333 381 22.2288 381 23.3333C381 24.4379 380.105 25.3333 379 25.3333H363C361.895 25.3333 361 24.4379 361 23.3333ZM347 32C345.895 32 345 32.8954 345 34C345 35.1046 345.895 36 347 36H379C380.105 36 381 35.1046 381 34C381 32.8954 380.105 32 379 32H347Z" fill="#0080FF"/>
<path d="M52.0771 26C51.9438 26 51.8304 25.9533 51.7371 25.86C51.6438 25.7667 51.5971 25.6533 51.5971 25.52V12.5C51.5971 12.3533 51.6438 12.2333 51.7371 12.14C51.8304 12.0467 51.9438 12 52.0771 12H57.2571C58.8704 12 60.1438 12.3733 61.0771 13.12C62.0104 13.8667 62.4771 14.9533 62.4771 16.38C62.4771 17.3667 62.2304 18.1867 61.7371 18.84C61.2571 19.4933 60.6104 19.9667 59.7971 20.26L62.7171 25.36C62.7571 25.44 62.7771 25.5133 62.7771 25.58C62.7771 25.7 62.7304 25.8 62.6371 25.88C62.5571 25.96 62.4638 26 62.3571 26H60.5371C60.3104 26 60.1371 25.94 60.0171 25.82C59.8971 25.7 59.8038 25.58 59.7371 25.46L57.1571 20.72H54.3771V25.52C54.3771 25.6533 54.3304 25.7667 54.2371 25.86C54.1571 25.9533 54.0438 26 53.8971 26H52.0771ZM54.3771 18.46H57.1971C58.0104 18.46 58.6171 18.28 59.0171 17.92C59.4171 17.5467 59.6171 17.0267 59.6171 16.36C59.6171 15.6933 59.4171 15.1733 59.0171 14.8C58.6304 14.4133 58.0238 14.22 57.1971 14.22H54.3771V18.46ZM64.1941 26C64.0875 26 63.9875 25.96 63.8941 25.88C63.8141 25.8 63.7741 25.7 63.7741 25.58C63.7741 25.5267 63.7875 25.4667 63.8141 25.4L68.6341 12.5C68.6741 12.3667 68.7475 12.2533 68.8541 12.16C68.9741 12.0533 69.1341 12 69.3341 12H71.5141C71.7141 12 71.8675 12.0533 71.9741 12.16C72.0808 12.2533 72.1608 12.3667 72.2141 12.5L77.0341 25.4C77.0475 25.4667 77.0541 25.5267 77.0541 25.58C77.0541 25.7 77.0141 25.8 76.9341 25.88C76.8541 25.96 76.7608 26 76.6541 26H74.9141C74.7275 26 74.5875 25.96 74.4941 25.88C74.4141 25.7867 74.3608 25.7 74.3341 25.62L73.3941 23.18H67.4541L66.5141 25.62C66.4875 25.7 66.4275 25.7867 66.3341 25.88C66.2541 25.96 66.1208 26 65.9341 26H64.1941ZM68.1541 20.88H72.6941L70.4141 14.7L68.1541 20.88ZM84.0479 26.2C82.8079 26.2 81.7546 25.9867 80.8879 25.56C80.0346 25.12 79.3812 24.5 78.9279 23.7C78.4746 22.8867 78.2212 21.9133 78.1679 20.78C78.1546 20.2333 78.1479 19.6467 78.1479 19.02C78.1479 18.3933 78.1546 17.7933 78.1679 17.22C78.2212 16.1 78.4746 15.1333 78.9279 14.32C79.3946 13.5067 80.0546 12.8867 80.9079 12.46C81.7746 12.02 82.8212 11.8 84.0479 11.8C84.9546 11.8 85.7679 11.92 86.4879 12.16C87.2079 12.4 87.8212 12.7333 88.3279 13.16C88.8346 13.5733 89.2279 14.06 89.5079 14.62C89.7879 15.18 89.9346 15.7867 89.9479 16.44C89.9612 16.56 89.9212 16.66 89.8279 16.74C89.7479 16.82 89.6479 16.86 89.5279 16.86H87.6279C87.4812 16.86 87.3612 16.8267 87.2679 16.76C87.1746 16.68 87.1079 16.5533 87.0679 16.38C86.8546 15.5 86.4879 14.9 85.9679 14.58C85.4479 14.26 84.8012 14.1 84.0279 14.1C83.1346 14.1 82.4212 14.3533 81.8879 14.86C81.3546 15.3533 81.0679 16.1733 81.0279 17.32C80.9879 18.4133 80.9879 19.5333 81.0279 20.68C81.0679 21.8267 81.3546 22.6533 81.8879 23.16C82.4212 23.6533 83.1346 23.9 84.0279 23.9C84.8012 23.9 85.4479 23.74 85.9679 23.42C86.4879 23.0867 86.8546 22.4867 87.0679 21.62C87.1079 21.4333 87.1746 21.3067 87.2679 21.24C87.3612 21.1733 87.4812 21.14 87.6279 21.14H89.5279C89.6479 21.14 89.7479 21.18 89.8279 21.26C89.9212 21.34 89.9612 21.44 89.9479 21.56C89.9346 22.2133 89.7879 22.82 89.5079 23.38C89.2279 23.94 88.8346 24.4333 88.3279 24.86C87.8212 25.2733 87.2079 25.6 86.4879 25.84C85.7679 26.08 84.9546 26.2 84.0479 26.2ZM92.7998 26C92.6664 26 92.5531 25.9533 92.4598 25.86C92.3664 25.7667 92.3198 25.6533 92.3198 25.52V12.48C92.3198 12.3467 92.3664 12.2333 92.4598 12.14C92.5531 12.0467 92.6664 12 92.7998 12H94.6798C94.8264 12 94.9398 12.0467 95.0198 12.14C95.1131 12.2333 95.1598 12.3467 95.1598 12.48V25.52C95.1598 25.6533 95.1131 25.7667 95.0198 25.86C94.9398 25.9533 94.8264 26 94.6798 26H92.7998ZM98.7763 26C98.643 26 98.5297 25.9533 98.4363 25.86C98.343 25.7667 98.2963 25.6533 98.2963 25.52V12.5C98.2963 12.3533 98.343 12.2333 98.4363 12.14C98.5297 12.0467 98.643 12 98.7763 12H100.536C100.683 12 100.803 12.0467 100.896 12.14C100.99 12.2333 101.036 12.3533 101.036 12.5V17.18L105.556 12.36C105.61 12.2933 105.696 12.22 105.816 12.14C105.95 12.0467 106.123 12 106.336 12H108.316C108.423 12 108.516 12.04 108.596 12.12C108.69 12.2 108.736 12.3 108.736 12.42C108.736 12.5133 108.71 12.5933 108.656 12.66L103.156 18.7L109.036 25.32C109.103 25.4 109.136 25.4867 109.136 25.58C109.136 25.7 109.09 25.8 108.996 25.88C108.916 25.96 108.823 26 108.716 26H106.656C106.43 26 106.25 25.9533 106.116 25.86C105.996 25.7533 105.916 25.68 105.876 25.64L101.036 20.34V25.52C101.036 25.6533 100.99 25.7667 100.896 25.86C100.803 25.9533 100.683 26 100.536 26H98.7763ZM115.59 26.2C114.404 26.2 113.384 26.0067 112.53 25.62C111.677 25.22 111.01 24.6133 110.53 23.8C110.05 22.9733 109.79 21.9467 109.75 20.72C109.737 20.1467 109.73 19.58 109.73 19.02C109.73 18.46 109.737 17.8867 109.75 17.3C109.79 16.0867 110.057 15.0733 110.55 14.26C111.044 13.4467 111.717 12.8333 112.57 12.42C113.437 12.0067 114.444 11.8 115.59 11.8C116.737 11.8 117.744 12.0067 118.61 12.42C119.477 12.8333 120.157 13.4467 120.65 14.26C121.144 15.0733 121.41 16.0867 121.45 17.3C121.477 17.8867 121.49 18.46 121.49 19.02C121.49 19.58 121.477 20.1467 121.45 20.72C121.41 21.9467 121.15 22.9733 120.67 23.8C120.19 24.6133 119.517 25.22 118.65 25.62C117.797 26.0067 116.777 26.2 115.59 26.2ZM115.59 23.9C116.457 23.9 117.164 23.6467 117.71 23.14C118.257 22.62 118.55 21.78 118.59 20.62C118.617 20.0333 118.63 19.4933 118.63 19C118.63 18.4933 118.617 17.9533 118.59 17.38C118.564 16.6067 118.417 15.98 118.15 15.5C117.897 15.0067 117.55 14.6533 117.11 14.44C116.67 14.2133 116.164 14.1 115.59 14.1C115.03 14.1 114.53 14.2133 114.09 14.44C113.65 14.6533 113.297 15.0067 113.03 15.5C112.777 15.98 112.637 16.6067 112.61 17.38C112.597 17.9533 112.59 18.4933 112.59 19C112.59 19.4933 112.597 20.0333 112.61 20.62C112.65 21.78 112.944 22.62 113.49 23.14C114.037 23.6467 114.737 23.9 115.59 23.9ZM124.617 26C124.47 26 124.35 25.9533 124.257 25.86C124.163 25.7667 124.117 25.6533 124.117 25.52V12.5C124.117 12.3533 124.163 12.2333 124.257 12.14C124.35 12.0467 124.47 12 124.617 12H126.197C126.383 12 126.523 12.0533 126.617 12.16C126.71 12.2533 126.77 12.3267 126.797 12.38L130.657 19.58L134.557 12.38C134.583 12.3267 134.643 12.2533 134.737 12.16C134.83 12.0533 134.97 12 135.157 12H136.717C136.863 12 136.983 12.0467 137.077 12.14C137.17 12.2333 137.217 12.3533 137.217 12.5V25.52C137.217 25.6533 137.17 25.7667 137.077 25.86C136.983 25.9533 136.863 26 136.717 26H135.037C134.89 26 134.77 25.9533 134.677 25.86C134.597 25.7667 134.557 25.6533 134.557 25.52V16.86L131.757 22.2C131.69 22.32 131.603 22.4267 131.497 22.52C131.39 22.6 131.25 22.64 131.077 22.64H130.257C130.07 22.64 129.923 22.6 129.817 22.52C129.723 22.4267 129.643 22.32 129.577 22.2L126.777 16.86V25.52C126.777 25.6533 126.73 25.7667 126.637 25.86C126.543 25.9533 126.43 26 126.297 26H124.617ZM140.35 26C140.217 26 140.103 25.9533 140.01 25.86C139.917 25.7667 139.87 25.6533 139.87 25.52V23.54C139.87 23.3933 139.917 23.2733 140.01 23.18C140.103 23.0867 140.217 23.04 140.35 23.04H142.35C142.483 23.04 142.597 23.0867 142.69 23.18C142.783 23.2733 142.83 23.3933 142.83 23.54V25.52C142.83 25.6533 142.783 25.7667 142.69 25.86C142.597 25.9533 142.483 26 142.35 26H140.35ZM145.964 26C145.83 26 145.717 25.9533 145.624 25.86C145.53 25.7667 145.484 25.6533 145.484 25.52V12.48C145.484 12.3467 145.53 12.2333 145.624 12.14C145.717 12.0467 145.83 12 145.964 12H147.844C147.99 12 148.104 12.0467 148.184 12.14C148.277 12.2333 148.324 12.3467 148.324 12.48V25.52C148.324 25.6533 148.277 25.7667 148.184 25.86C148.104 25.9533 147.99 26 147.844 26H145.964ZM151.94 26C151.807 26 151.694 25.9533 151.6 25.86C151.507 25.7667 151.46 25.6533 151.46 25.52V12.5C151.46 12.3533 151.507 12.2333 151.6 12.14C151.694 12.0467 151.807 12 151.94 12H156.82C158.167 12 159.274 12.2067 160.14 12.62C161.02 13.0333 161.68 13.6467 162.12 14.46C162.574 15.2733 162.807 16.2667 162.82 17.44C162.847 18.0267 162.86 18.5467 162.86 19C162.86 19.4533 162.847 19.9667 162.82 20.54C162.794 21.78 162.567 22.8067 162.14 23.62C161.714 24.42 161.067 25.02 160.2 25.42C159.347 25.8067 158.254 26 156.92 26H151.94ZM154.24 23.7H156.82C157.567 23.7 158.174 23.5933 158.64 23.38C159.107 23.1667 159.447 22.8267 159.66 22.36C159.887 21.88 160.007 21.2533 160.02 20.48C160.034 20.08 160.04 19.7333 160.04 19.44C160.054 19.1333 160.054 18.8333 160.04 18.54C160.04 18.2333 160.034 17.8867 160.02 17.5C159.994 16.4067 159.72 15.6 159.2 15.08C158.68 14.56 157.854 14.3 156.72 14.3H154.24V23.7Z" fill="black"/>
</svg>
